<?xml version="1.0" standalone="no"?>
<!DOCTYPE svg PUBLIC "-//W3C//DTD SVG 1.1//EN" "http://www.w3.org/Graphics/SVG/1.1/DTD/svg11.dtd">

<svg xmlns="http://www.w3.org/2000/svg" version="1.1"
	width="750" viewBox="0 0 500 160">
	<ellipse cx="50" cy="20" rx="49" ry="19" style="fill:none;stroke:black;stroke-width:1;" />
	<text x="50" y="20" style="text-anchor:middle;dominant-baseline:middle;">New</text>
	<ellipse cx="150" cy="100" rx="49" ry="19" style="fill:none;stroke:black;stroke-width:1;" />
	<text x="150" y="100" style="text-anchor:middle;dominant-baseline:middle;">Ready</text>
	<ellipse cx="350" cy="100" rx="49" ry="19" style="fill:none;stroke:black;stroke-width:1;" />
	<text x="350" y="100" style="text-anchor:middle;dominant-baseline:middle;">Running</text>
	<ellipse cx="450" cy="20" rx="49" ry="19" style="fill:none;stroke:black;stroke-width:1;" />
	<text x="450" y="20" style="text-anchor:middle;dominant-baseline:middle;">Terminated</text>
	<marker id="triangle" viewBox="0 0 10 10" refX="0" refY="5"
		markerUnits="strokeWidth" markerWidth="8" markerHeight="6" orient="auto">
		<path d="M 0 0 L 10 5 L 0 10 Z" />
	</marker>
	<path d="M173,117 C204,148 284,148 315,119" style="fill:none;stroke:black;stroke-width:1;"
		marker-end="url(#triangle)"/>
	<text x="250" y="157" style="text-anchor:middle;fill:blue;">Scheduler dispatch</text>
	<path d="M99,20 c26,12 41,30 51,55" style="fill:none;stroke:black;stroke-width:1;"
		marker-end="url(#triangle)"/>
	<text x="155" y="40" style="text-anchor:middle;fill:blue;">Admit</text>
	<path d="M350,81 c10,-30 25,-48 46,-57" style="fill:none;stroke:black;stroke-width:1;"
		marker-end="url(#triangle)"/>
	<text x="355" y="40" style="text-anchor:middle;fill:blue;">Exit</text>
	<rect x="50" y="92" width="48" height="67" style="fill:none;stroke:black;stroke-width:1;"/>
	<text x="74" y="85" style="text-anchor:middle;fill:blue;font-size:0.6em;">Ready Queue</text>
	<line x1="50" y1="100" x2="98" y2="100" style="stroke:black;stroke-width:1;" />
	<line x1="50" y1="110" x2="98" y2="110" style="stroke:black;stroke-width:1;" />
	<line x1="50" y1="120" x2="98" y2="120" style="stroke:black;stroke-width:1;" />
	<line x1="50" y1="130" x2="98" y2="130" style="stroke:black;stroke-width:1;" />
	<circle cx="74" cy="138" r="0.5" style="stroke:black;" />
	<circle cx="74" cy="145" r="0.5" style="stroke:black;" />
	<circle cx="74" cy="152" r="0.5" style="stroke:black;" />
</svg> 
