<?xml version="1.0" standalone="no"?>
<!DOCTYPE svg PUBLIC "-//W3C//DTD SVG 1.1//EN" "http://www.w3.org/Graphics/SVG/1.1/DTD/svg11.dtd">

<svg xmlns="http://www.w3.org/2000/svg" version="1.1"
	width="100%" viewBox="0 0 311 56">
	<rect x="90" y="1" width="50" height="28" style="fill:none;stroke:black;" />
	<text x="115" y="14" style="text-anchor:middle;font-size:0.5em;">
		<tspan>Controller</tspan>
		<tspan x="115" dy="1em">(PID ...)</tspan>
	</text>
	<rect x="186" y="1" width="50" height="28" style="fill:none;stroke:black;" />
	<text x="212" y="14" style="text-anchor:middle;dominant-baseline:central;font-size:0.5em;">
		System
	</text>
	<marker id="triangle" viewBox="0 0 10 10" refX="0" refY="5"
		markerUnits="strokeWidth" markerWidth="8" markerHeight="6" orient="auto">
		<path d="M 0 0 L 10 5 L 0 10 Z" />
	</marker>
	<g style="fill:none;stroke:black;stroke-width:1;" marker-end="url(#triangle)">
		<line x1="4" y1="15" x2="34" y2="15" />
		<line x1="44" y1="15" x2="84" y2="15" />
		<line x1="140" y1="15" x2="180" y2="15" />
		<line x1="236" y1="15" x2="296" y2="15" />
		<path d="M276,15 L276,55 L42,55 L42,23" />
	</g>
	<circle cx="42" cy="15" r="2" style="fill:none;stroke:black;" />
	<circle cx="276" cy="15" r="1.5" style="stroke:black;" />
	<text x="0" y="10" style="font-size:0.6em;">
		<tspan>Set </tspan>
		<tspan style="font-style:italic;">x</tspan>
	</text>
	<text x="62" y="13" style="font-size:0.6em;font-style:italic;">e</text>
	<text x="30" y="11" style="font-size:0.6em;">+</text>
	<text x="37" y="30" style="font-size:0.8em;">-</text>
	<text x="158" y="13" style="font-size:0.6em;font-style:italic;">u</text>
	<text x="305" y="17" style="font-size:0.6em;font-style:italic;">y</text>
	<text x="159" y="53" style="font-size:0.6em;text-anchor:middle;">feedback</text>
</svg> 
