<?xml version="1.0" standalone="no"?>
<!DOCTYPE svg PUBLIC "-//W3C//DTD SVG 1.1//EN" "http://www.w3.org/Graphics/SVG/1.1/DTD/svg11.dtd">

<svg xmlns="http://www.w3.org/2000/svg" version="1.1" width="100%" viewBox="0 0 558 207">
	<defs>
		<marker id="triangle" viewBox="0 0 10 10" refX="0" refY="5"
			markerUnits="strokeWidth" markerWidth="12" markerHeight="9" orient="auto">
			<path d="M 0 0 L 10 5 L 0 10 Z" />
		</marker>
		<marker id="striangle" viewBox="0 0 10 10" refX="0" refY="5"
			markerUnits="strokeWidth" markerWidth="4" markerHeight="3" orient="auto">
			<path d="M 0 0 L 10 5 L 0 10 Z" stroke="context-stroke" />
		</marker>
		<marker id="circle" viewBox="0 0 2 2" refX="1" refY="1"
			markerUnits="strokeWidth" markerWidth="2.5" markerHeight="2.5" orient="auto">
			<circle cx="1" cy="1" r="1" stroke="context-stroke" />
		</marker>
		<marker id="unlimit" viewBox="0 0 10 10" refX="5" refY="5"
			markerUnits="strokeWidth" markerWidth="10" markerHeight="10" orient="auto">
			<path d="M0,5 c0,5 10,10" />
		</marker>
	</defs>
	<line x1="6" y1="194" x2="549" y2="194" style="stroke:black;stroke-width:1;"
		marker-end="url(#triangle)" />
	<line x1="6" y1="194" x2="6" y2="9" style="stroke:black;stroke-width:1;"
		marker-end="url(#triangle)" />
	<text x="240" y="207" style="font-style:italic;font-size:0.8em;">time line</text>
	<polyline points="6,194 6,169, 26,169 26,194 77,194 77,169 97,169 97,194 137,194 137,169 147,169 147,194 172,194 172,169 182,169 182,194 247,194 247,169 267,169 267,194 317,194 317,169 337,169 337,194 387,194 387,169 407,169 407,194 447,194 447,169 465,169"
		style="fill:none;stroke:blue;stroke-width:1;" />
	<text x="475" y="187" style="fill:blue;">Scheduler</text>
	<polyline points="6,154 26,154, 26,129 77,129 77,154 337,154 337,129 387,129 387,154 465,154"
		style="fill:none;stroke:red;stroke-width:1;" />
	<text x="475" y="147" style="fill:red;">Job #1</text>
	<polyline points="6,114 97,114, 97,89 137,89 137,114 182,114 182,89 212,89 212,114 237,114 237,89 247,89 247,114 407,114 407,89 447,89 447,114 465,114"
		style="fill:none;stroke:purple;stroke-width:1;" />
	<text x="475" y="107" style="fill:purple;">Job #2</text>
	<polyline points="6,74 267,74 267,49 317,49 317,74 465,74"
		style="fill:none;stroke:green;stroke-width:1;" />
	<text x="475" y="67" style="fill:green;">Job #3</text>
	<polyline points="6,34 147,34, 147,9 172,9 172,34 212,34 212,9 237,9 237,34 465,34"
		style="fill:none;stroke:dimgray;stroke-width:1;" marker-end="url(#unlimit)" />
	<text x="475" y="27" style="fill:dimgray;">Interrupts</text>
	<g style="fill:none;stroke:black;stroke-width:1;"
		stroke-dasharray="3,2" marker-end="url(#striangle)">
		<path d="M26,169 l0,-12" />
		<path d="M77,154 l0,12" />
		<path d="M97,169 l0,-52" />
		<path d="M137,114 l0,52" />
		<path d="M147,169 l0,-132" />
		<path d="M172,34 l0,132" />
		<path d="M182,169 l0,-52" />
		<path d="M212,89 l0,-52" />
		<path d="M237,34 l0,52" />
		<path d="M247,114 l0,52" />
		<path d="M267,169 l0,-92" />
		<path d="M317,74 l0,92" />
		<path d="M337,169 l0,-12" />
		<path d="M387,154 l0,12" />
		<path d="M407,169 l0,-52" />
		<path d="M447,114 l0,52" />
	</g>
	<g style="fill:none;stroke-width:1;" stroke-dasharray="3,5"
		marker-start="url(#circle)" marker-end="url(#striangle)">
		<path d="M61,129 q20,-27 118,-27" style="stroke:purple;" />
		<path d="M162,9 q50,42 102,52" style="stroke:green;" />
		<path d="M227,9 c60,5 60,120 107,130" style="stroke:red;" />
		<path d="M371,129 q8,-20 33,-27" style="stroke:purple;" />
	</g>
	<path d="M465,188 c2,1 2,5 0,6 c-2,1 -2,5 0,6" style="fill:none;stroke:black;" />
	<path d="M466.5,188 c2,1 2,5 0,6 c-2,1 -2,5 0,6" style=" fill:none;stroke:white;" />
	<path d="M467.5,188 c2,1 2,5 0,6 c-2,1 -2,5 0,6" style="fill:none;stroke:black;" />
	<g style="fill:black;font-size:0.3em;">
		<text x="32" y="163" style="text-anchor:middle;dominant-baseline:middle;">1</text>
		<text x="60" y="135" style="text-anchor:middle;dominant-baseline:middle;fill:purple">2</text>
		<text x="71" y="160" style="text-anchor:middle;dominant-baseline:middle;">3</text>
		<text x="103" y="163" style="text-anchor:middle;dominant-baseline:middle;">4</text>
		<text x="131" y="120" style="text-anchor:middle;dominant-baseline:middle;">5</text>
		<text x="153" y="163" style="text-anchor:middle;dominant-baseline:middle;">6</text>
		<text x="162" y="17" style="text-anchor:middle;dominant-baseline:middle;fill:green;">7</text>
		<text x="166" y="40" style="text-anchor:middle;dominant-baseline:middle;">8</text>
		<text x="188" y="163" style="text-anchor:middle;dominant-baseline:middle;">9</text>
		<text x="218" y="81" style="text-anchor:middle;dominant-baseline:middle;">10</text>
		<text x="227" y="17" style="text-anchor:middle;dominant-baseline:middle;fill:red;">11</text>
		<text x="231" y="40" style="text-anchor:middle;dominant-baseline:middle;">12</text>
		<text x="241" y="120" style="text-anchor:middle;dominant-baseline:middle;">13</text>
		<text x="273" y="163" style="text-anchor:middle;dominant-baseline:middle;">14</text>
		<text x="311" y="81" style="text-anchor:middle;dominant-baseline:middle;">15</text>
		<text x="343" y="163" style="text-anchor:middle;dominant-baseline:middle;">16</text>
		<text x="370" y="135" style="text-anchor:middle;dominant-baseline:middle;fill:purple">17</text>
		<text x="381" y="160" style="text-anchor:middle;dominant-baseline:middle;">18</text>
		<text x="413" y="163" style="text-anchor:middle;dominant-baseline:middle;">19</text>
		<text x="441" y="120" style="text-anchor:middle;dominant-baseline:middle;">20</text>
	</g>
	<g style="fill:none;stroke:black;stroke-width:0.5;">
		<circle cx="32" cy="163" r="4" style="stroke:black;" />
		<circle cx="60" cy="135" r="4" style="stroke:purple;" />
		<circle cx="71" cy="160" r="4" style="stroke:black;" />
		<circle cx="103" cy="163" r="4" style="stroke:black;" />
		<circle cx="131" cy="120" r="4" style="stroke:black;" />
		<circle cx="153" cy="163" r="4" style="stroke:black;" />
		<circle cx="162" cy="17" r="4" style="stroke:green;" />
		<circle cx="166" cy="40" r="4" style="stroke:black;" />
		<circle cx="188" cy="163" r="4" style="stroke:black;" />
		<circle cx="218" cy="81" r="4" style="stroke:black;" />
		<circle cx="227" cy="17" r="4" style="stroke:red;" />
		<circle cx="231" cy="40" r="4" style="stroke:black;" />
		<circle cx="241" cy="120" r="4" style="stroke:black;" />
		<circle cx="273" cy="163" r="4" style="stroke:black;" />
		<circle cx="311" cy="81" r="4" style="stroke:black;" />
		<circle cx="343" cy="163" r="4" style="stroke:black;" />
		<circle cx="370" cy="135" r="4" style="stroke:purple;" />
		<circle cx="381" cy="160" r="4" style="stroke:black;" />
		<circle cx="413" cy="163" r="4" style="stroke:black;" />
		<circle cx="441" cy="120" r="4" style="stroke:black;" />
	</g>
</svg>
